<svg width="275" height="275" xmlns="http://www.w3.org/2000/svg">

 <g>
  <title>Layer 1</title>
  <path d="m187.95739,274.89486c-62.97158,0 -125.44317,0 -187.95738,0c0,-91.59656 0,-183.19314 0,-274.89486c91.51217,0 183.06711,0 274.78972,0c0,91.56127 0,183.22805 0,274.89486c-28.69196,0 -57.51215,0 -86.83234,0m41.21271,-247.56469c-5.38234,-5.81611 -10.07195,-5.45026 -14.72673,0.72781c-10.09999,13.40524 -21.55826,25.8681 -28.37897,41.51423c-0.19459,0.4464 -0.63336,0.78062 -0.87087,1.21495c-2.3307,4.26213 -5.576,5.03734 -10.35215,4.02436c-8.59204,-1.82231 -17.34949,-3.74622 -26.07102,-3.91516c-28.98672,-0.5615 -57.98816,-0.39 -86.98404,-0.42206c-4.1571,-0.0046 -8.33623,0.226 -12.46651,0.69104c-5.02713,0.56601 -8.4082,4.48801 -8.2333,9.06463c0.18836,4.92891 3.91333,8.47331 9.15923,8.67357c1.44828,0.0553 2.90046,0.00843 4.63169,0.00843c0.39577,2.728 1.00297,5.00456 1.01555,7.2844c0.21245,38.48371 0.36473,76.96781 0.44748,115.452c0.00286,1.3287 -0.48787,3.00923 -1.37006,3.93082c-4.88372,5.10168 -5.78938,8.34314 -3.12532,12.5982c2.62524,4.19307 6.90723,4.72557 13.35164,2.65306c4.9745,-1.59979 10.21904,-3.15837 15.37452,-3.26724c33.25753,-0.70236 66.67315,2.13716 99.60667,-5.22899c4.11928,-0.92134 8.39447,-0.60829 12.29336,2.39279c1.52691,1.17531 4.88019,0.92774 6.99973,0.18348c4.27702,-1.50181 4.78975,-5.43132 4.81088,-9.49273c0.13263,-25.49495 0.17107,-50.99234 0.60369,-76.48277c0.16246,-9.57265 1.43904,-19.12229 1.87631,-28.69756c0.0981,-2.14781 -0.58398,-4.9002 -1.95545,-6.44086c-4.32891,-4.8629 -4.03645,-9.61614 -1.30062,-15.03402c0.9707,-1.92237 0.74881,-4.45447 1.03352,-6.713c0.17909,-1.42056 -0.15958,-3.11107 0.49657,-4.23557c7.63229,-13.08076 15.29942,-26.14455 23.22047,-39.05132c2.19995,-3.58467 3.10458,-6.90818 0.91373,-11.43249z" fill="#ffffff"/>
  <path stroke="#ffffff" d="m181.6014,117.789c1.06909,-1.73083 2.1382,-3.46164 3.67636,-5.58935c0.95656,-0.38375 1.44405,-0.37059 1.93152,-0.35742c0.19333,16.37297 0.38666,32.74594 0.49762,49.9207c0.03348,3.24433 0.14932,5.68685 0.26518,8.12938c0,11.30155 0,22.6031 0,34.40477c-16.84379,1.59143 -33.31947,3.84711 -49.85994,4.52756c-19.11828,0.78648 -38.29365,0.19997 -57.4442,0.17961c-7.34706,-0.00781 -8.55754,-1.06012 -8.48167,-8.30316c0.26854,-25.63695 0.66456,-51.27255 1.02387,-76.90852c0.00866,-0.61786 0.15302,-1.23382 1.51706,-2.86054c3.38515,3.58144 7.52716,6.70459 10.02225,10.825c9.9125,16.36952 19.31076,33.05044 29.14074,50.16847c0.7507,1.18417 1.26019,1.81587 1.76968,2.44757c3.18219,5.3562 4.71364,12.04277 12.22617,14.65115c1.79388,0.33492 2.97153,0.42435 4.14918,0.51377c2.7605,0.25397 5.521,0.50793 8.89934,0.56337c1.30205,-0.89697 1.98629,-1.59542 2.6705,-2.29386c1.25234,-2.2063 2.50466,-4.41261 4.02137,-7.14866c0.39878,-1.31185 0.5332,-2.09397 0.66762,-2.87607c0.86079,-3.03961 1.72157,-6.07921 2.81552,-9.69861c0.27235,-1.14824 0.31154,-1.7167 0.35072,-2.28516c0.12415,-0.42193 0.24829,-0.84388 0.57414,-1.7987c0.25337,-1.0918 0.30503,-1.65074 0.35668,-2.20967c4.56015,-8.93021 9.12028,-17.86041 14.03331,-27.26219c0.65525,-1.21422 0.95764,-1.95687 1.26002,-2.69951c4.09532,-6.99387 8.19064,-13.98775 12.66312,-21.4169c0.6694,-1.16453 0.96162,-1.89378 1.25384,-2.62303z" fill="#ffffff"/>
  <path d="m141.09081,152.9678c-2.97027,6.1024 -5.81344,11.83737 -9.23201,18.73298c-4.43141,-7.86718 -8.7491,-14.19684 -11.72252,-21.10507c-5.26983,-12.24357 -13.0305,-22.71422 -21.1891,-33.03451c-2.55969,-3.23791 -4.60924,-6.89121 -6.77173,-10.42809c-2.98575,-4.88337 -5.73068,-6.00591 -11.1982,-4.51678c-2.06155,0.56147 -4.18374,0.90034 -6.30429,1.34615c-0.31634,-0.7207 -0.64861,-1.14604 -0.67683,-1.59068c-0.64389,-10.14656 -0.45547,-10.34215 9.61637,-10.34293c26.62092,-0.00205 53.24185,-0.00448 79.86276,-0.00674c1.61572,-0.00013 3.23144,-0.00001 5.77623,-0.00001c-12.03711,19.56349 -20.42034,39.89732 -28.16068,60.94568z" fill="#ffffff"/>
  <path d="m188.22137,169.6036c-0.36515,-2.15382 -0.48099,-4.59634 -0.44867,-7.37634c0.33145,2.13755 0.51471,4.61261 0.44867,7.37634z" fill="#BDBDBD"/>
  <path d="m167.34319,141.88659c0.03887,0.68498 -0.26352,1.42763 -0.8417,2.31273c-0.01705,-0.65671 0.2417,-1.45589 0.8417,-2.31273z" fill="#CBCBCB"/>
  <path d="m152.14144,171.83511c0.19802,0.51445 0.14636,1.07339 -0.12314,1.83236c-0.18742,-0.46258 -0.15698,-1.12522 0.12314,-1.83236z" fill="#CBCBCB"/>
  <path d="m151.20135,175.83266c0.21976,0.5348 0.18057,1.10326 -0.08451,1.86082c-0.20874,-0.48299 -0.1916,-1.15507 0.08451,-1.86082z" fill="#CBCBCB"/>
  <path d="m115.73228,184.03378c-0.5819,-0.29241 -1.09139,-0.92411 -1.58293,-1.87403c0.56374,0.29943 1.10954,0.91707 1.58293,1.87403z" fill="#CBCBCB"/>
 </g>
</svg>