<?xml version="1.0" encoding="utf-8"?>
<!-- Generator: Adobe Illustrator 26.3.1, SVG Export Plug-In . SVG Version: 6.00 Build 0)  -->
<svg version="1.1" id="Layer_1" xmlns="http://www.w3.org/2000/svg" xmlns:xlink="http://www.w3.org/1999/xlink" x="0px" y="0px"
	 viewBox="0 0 595.28 841.89" style="enable-background:new 0 0 595.28 841.89;" xml:space="preserve">
<g>
	<path d="M177.8,257.46c91.25,0,182.5,0,274,0c0,91.33,0,182.67,0,274c-1.16,0.06-2.32,0.18-3.47,0.18
		c-88.61,0.01-177.21,0.01-265.82,0c-1.45,0-2.89-0.16-4.25-0.24c-1.06-2.19-0.63-4.21-0.63-6.15
		c-0.03-87.44-0.02-174.89-0.01-262.33C177.62,261.1,177.74,259.28,177.8,257.46z M280.79,328.38c0-0.07,0-0.14,0-0.21
		c-13.95,0-27.89-0.07-41.84,0.04c-4.3,0.03-8.65,0.22-12.89,0.92c-4.54,0.74-6.94,4.01-6.73,8.53c0.21,4.51,3.04,8.13,7.45,7.87
		c6.91-0.42,6.97,3.63,7.2,8.36c1.69,36.18,0.25,72.38,0.57,108.56c0.04,4.67,0.74,9.36-4.18,12.86c-2.63,1.87-2.4,5.7-0.8,8.77
		c1.51,2.87,4,4.45,7.26,4.41c1.46-0.02,3.07-0.24,4.33-0.9c7.35-3.86,15.21-3.92,23.25-3.96c30.82-0.14,61.78,2.13,92.27-4.86
		c4.21-0.96,8.65-0.77,12.79,2.2c4.48,3.21,10.31,0.17,11.3-5.32c0.23-1.29,0.16-2.65,0.17-3.97c0.31-32.04,0.39-64.09,1.1-96.12
		c0.14-6.5,2.88-12.97-3.18-18.27c-0.46-0.41-0.27-1.59-0.35-2.41c-0.64-6.79,4.34-12.72,3.04-19.62c-0.05-0.25,0.29-0.58,0.47-0.86
		c7.88-12.88,14.59-26.46,23.2-38.9c3.11-4.49,2.31-10.11-1.7-12.79c-4.17-2.79-8.13-1.55-11.82,3.3
		c-10.03,13.18-21.25,25.55-28.04,40.96c-0.46,1.03-1.46,1.81-2.05,2.8c-1.89,3.2-4.48,3.98-8.02,2.9
		c-14.5-4.44-29.42-4.57-44.39-4.31C299.72,328.51,290.25,328.38,280.79,328.38z"/>
	<path d="M364.89,367.2c0,8.28-0.04,15.54,0.01,22.8c0.15,22.25,0.28,44.5,0.58,66.74c0.05,3.61-0.98,5.09-4.77,4.97
		c-6.17-0.2-12.22,1.09-18.25,2.25c-18.94,3.64-38.08,1.71-57.13,2.12c-9.46,0.2-18.93,0.11-28.39-0.01
		c-5.89-0.08-7.37-1.68-7.55-7.42c-0.83-25.74,1.24-51.45,1.05-77.18c-0.01-0.96-0.11-2.02,1.24-2.99
		c4.89,2.25,8.69,5.8,11.49,10.68c11.41,19.86,23.07,39.59,34.31,59.55c4.12,7.32,11.12,7.69,17.89,8.53
		c3.11,0.38,5.25-2.33,6.86-5.05c3.71-6.29,4.87-13.39,6.47-20.32c1.4-6.05,3.55-11.67,6.72-17.03
		c8.44-14.29,16.68-28.71,25.01-43.06C361.22,370.39,361.77,368.76,364.89,367.2z"/>
	<path d="M251.44,360.72c-0.1-1.71-0.27-3.17-0.25-4.63c0.12-6.59,0.66-7.15,7.09-7.15c27.56-0.01,55.12-0.01,82.67,0.02
		c1.6,0,3.32-0.43,5.6,1.4c-16.51,23.63-22.61,52.41-37.38,78.8c-4.42-7.74-8.7-13.85-11.58-20.57
		c-5.58-13.01-13.8-24.13-22.6-34.98c-2.28-2.81-3.98-6.11-5.73-9.3c-2.39-4.33-5.86-5.54-10.46-4.16
		C256.6,360.78,254.39,361.56,251.44,360.72z"/>
	<path d="M349.28,379.92c1.68-10.5,8.51-18.08,14.66-26.05c-4.42,8.93-8.66,17.97-14.76,25.95L349.28,379.92z"/>
	<path d="M374.33,350.58c0.94,3.48,0.57,5.37-3.35,4.94C370.81,352.99,371.69,351.55,374.33,350.58z"/>
	<path d="M349.17,379.81c-0.05,0.13-0.09,0.26-0.14,0.39c0.08-0.09,0.16-0.19,0.24-0.28C349.28,379.92,349.17,379.81,349.17,379.81z
		"/>
</g>
</svg>
